{"title":"Jarhead.(2005).(Dutchsubs-HC)-WaRlOrD","uid":5050498,"size":850573367,"categoryP":"video","categoryS":"movies","magnet":"?xt=urn:btih:6f72ac0c6969698dd8e183e3c71c202eb6303739&amp;dn=Jarhead.%282005%29.%28Dutchsubs-HC%29-WaRlOrD&amp;tr=udp%3A%2F%2Ftracker.openbittorrent.com%3A80&amp;tr=udp%3A%2F%2Fopen.demonii.com%3A1337&amp;tr=udp%3A%2F%2Ftracker.coppersurfer.tk%3A6969&amp;tr=udp%3A%2F%2Fexodus.desync.com%3A6969","seeders":0,"leechers":1,"uploader":"bitpirate","files":2,"time":1250168427,"description":"((((((hardcoded Dutch subs)))))))\n\nVerenigde Staten\nOorlog / Drama\n123 minuten\n\ngeregisseerd door Sam Mendes\nmet Jake Gyllenhaal, Jamie Foxx en Peter Sarsgaard\n\nAnthony Swofford, kortweg Swoff (Jake Gyllenhaal), wordt na zijn training als scherpschutter bij de mariniers uitgezonden naar het Midden-Oosten. De Eerste Golfoorlog is net begonnen en Swoff en zijn maten kunnen niet wachten om in de praktijk te brengen waar ze jaren op getraind hebben en te strijden tegen de grote vijand in de woestijn. Maar de werkelijkheid blijkt anders. Maandenlang moeten de mannen wachten totdat er iets gebeurt, terwijl de vijand in principe om elke hoek kan liggen en op ieder moment toe kan slaan. Swoff en z'n maten houden zich op de gloeiende zandvlaktes staande met sardonische kameraadschap en boosaardige humor, en dit allemaal in een land waar ze niks van weten, tegen een vijand waar ze niks van zien en voor een zaak waar ze weinig van snappen.\n &lt;a href=&quot;\nhttp://www.moviemeter.nl/film/31445&quot; rel=&quot;nofollow&quot; target=&quot;_NEW&quot;&gt;\nhttp://www.moviemeter.nl/film/31445&lt;/a&gt;\n\nFile size : 811 MiB\nDuration : 1h 58mn\nOverall bit rate : 960 Kbps\n\nVideo\nID : 0\nFormat : MPEG-4 Visual\nFormat profile : Advanced Simple@L5\nFormat settings, BVOP : Yes\nFormat settings, QPel : No\nFormat settings, GMC : No warppoints\nFormat settings, Matrix : Default (H.263)\nMuxing mode : Packed bitstream\nCodec ID : XVID\nCodec ID/Hint : XviD\nDuration : 1h 58mn\nBit rate : 758 Kbps\nWidth : 600 pixels\nHeight : 480 pixels\nDisplay aspect ratio : 5/4\nFrame rate : 25.000 fps\nResolution : 24 bits\nColorimetry : 4:2:0\nScan type : Progressive\nBits/(Pixel*Frame) : 0.105\nStream size : 641 MiB (79%)\nWriting library : XviD 1.0.2 (UTC 2004-08-29)\n\nAudio\nID : 1\nFormat : MPEG Audio\nFormat version : Version 1\nFormat profile : Layer 3\nCodec ID : 55\nCodec ID/Hint : MP3\nDuration : 1h 58mn\nBit rate mode : Constant\nBit rate : 192 Kbps\nChannel(s) : 2 channels\nSampling rate : 44.1 KHz\nResolution : 16 bits\nVideo delay : 26ms\nStream size : 162 MiB (20%)\nAlignment : Split accross interleaves\nInterleave, duration : 40 ms (1.00 video frame)\nTitle : Audio Stream\nWriting library : LAME3.92","torrent":{"xt":"urn:btih:6f72ac0c6969698dd8e183e3c71c202eb6303739","amp;dn":"Jarhead.%282005%29.%28Dutchsubs-HC%29-WaRlOrD","amp;tr":["udp%3A%2F%2Ftracker.openbittorrent.com%3A80","udp%3A%2F%2Fopen.demonii.com%3A1337","udp%3A%2F%2Ftracker.coppersurfer.tk%3A6969","udp%3A%2F%2Fexodus.desync.com%3A6969"],"infoHash":"6f72ac0c6969698dd8e183e3c71c202eb6303739","infoHashBuffer":{"type":"Buffer","data":[111,114,172,12,105,105,105,141,216,225,131,227,199,28,32,46,182,48,55,57]},"announce":[],"urlList":[]}}